# xmcd CD database file
#
# Track frame offsets:
#	150
#	8512
#	25237
#	30815
#	38520
#	49402
#	61989
#	70937
#	78911
#	89633
#	102360
#	111039
#	116554
#	122853
#	130853
#	137860
#	144340
#	151288
#	158362
#	162583
#	167044
#	167662
#	168606
#	173679
#	178333
#	181826
#	190596
#	197988
#	205127
#	214134
#	221489
#	227201
#	232862
#	240326
#	245250
#	251000
#	254428
#	254959
#	255484
#	256271
#	256886
#	262244
#	265499
#	273227
#	277585
#	284089
#	289501
#	293512
#	297036
#	306700
#	312094
#	316362
#	322077
#	326077
#	328283
#
# Disc length: 4558 seconds
#
# Revision: 0
# Processed by: cddbd v1.5.1PL0 Copyright (c) Steve Scherf et al.
# Submitted via: CDex 1.51
#
DISCID=3311cc37
DTITLE=Sonoton Authentic Series - SAS 071 - Authentic Philippines
DYEAR=1999
DGENRE=Contentum
TTITLE0=Rondalla - Bahay kubo
TTITLE1=Rondalla - Mutya ng pasig
TTITLE2=Rondalla - Leron leron sinta
TTITLE3=Rondalla - Dandansoy
TTITLE4=Rondalla - Lulay
TTITLE5=Kundiman - Kung Hindi man 1
TTITLE6=Kundiman - Kung Hindi man 2
TTITLE7=Kundiman - Woman of Pasig
TTITLE8=Kundiman - Kundiman los banos
TTITLE9=Kundiman - Bituing marikit
TTITLE10=Kundiman - Kundiman mood
TTITLE11=Kulintang - Binalig 1
TTITLE12=Kulintang - Binalig 2
TTITLE13=Kulintang - Sinulug
TTITLE14=Kulintang - Duyug
TTITLE15=Kulintang - Tidtu
TTITLE16=Kulintang - Tagunggo
TTITLE17=Kulintang - Carabo race
TTITLE18=Kulintang - Takbuhan
TTITLE19=Kulintang - Ugong
TTITLE20=Kulintang - Kulintang sting
TTITLE21=Kulintang - Kulintang bride
TTITLE22=Kulintang - Naggadamgu
TTITLE23=Kulintang - Paminsar
TTITLE24=Kulintang - Lagsanay
TTITLE25=Kudyapi and Hegalong - Courtship
TTITLE26=Kudyapi and Hegalong - Dagas
TTITLE27=Kudyapi and Hegalong - Talaan dig
TTITLE28=Kudyapi and Hegalong - Sami sigalong
TTITLE29=Kudyapi and Hegalong - Tigwa
TTITLE30=Kalingga - Patang og
TTITLE31=Kalingga - Tongali
TTITLE32=Kalingga - Uyayi
TTITLE33=Kalingga - Tachok
TTITLE34=Kalingga - Tikitik
TTITLE35=Kalingga - Tupaya
TTITLE36=Kalingga - Kalingga stings 1
TTITLE37=Kalingga - Kalingga stings 2
TTITLE38=Kalingga - Kalingga stings 3
TTITLE39=Kalingga - Kalingga stings 4
TTITLE40=Kalingga - Saggeypo
TTITLE41=Kalingga - Kolibit
TTITLE42=Kalingga - Pastoral nose flute
TTITLE43=Kalingga - Kubing
TTITLE44=Ifugao - Bitangoc
TTITLE45=Ifugao - Tubub
TTITLE46=Ifugao - Dinuya
TTITLE47=Ifugao - Pat na
TTITLE48=Solo Instruments from South Philippines - Mysterio
TTITLE49=Solo Instruments from South Philippines - Gabi
TTITLE50=Solo Instruments from South Philippines - Suntok
TTITLE51=Solo Instruments from South Philippines - Pating
TTITLE52=Solo Instruments from South Philippines - Bangugot
TTITLE53=Solo Instruments from South Philippines - Bunkaka
TTITLE54=Solo Instruments from South Philippines - Ugnayan
EXTD=YEAR: 1999
EXTT0=
EXTT1=
EXTT2=
EXTT3=
EXTT4=
EXTT5=
EXTT6=
EXTT7=
EXTT8=
EXTT9=
EXTT10=
EXTT11=
EXTT12=
EXTT13=
EXTT14=
EXTT15=
EXTT16=
EXTT17=
EXTT18=
EXTT19=
EXTT20=
EXTT21=
EXTT22=
EXTT23=
EXTT24=
EXTT25=
EXTT26=
EXTT27=
EXTT28=
EXTT29=
EXTT30=
EXTT31=
EXTT32=
EXTT33=
EXTT34=
EXTT35=
EXTT36=
EXTT37=
EXTT38=
EXTT39=
EXTT40=
EXTT41=
EXTT42=
EXTT43=
EXTT44=
EXTT45=
EXTT46=
EXTT47=
EXTT48=
EXTT49=
EXTT50=
EXTT51=
EXTT52=
EXTT53=
EXTT54=
PLAYORDER=
